# xmcd
#
# Track frame offsets: 
#        150
#        22728
#        41798
#        62125
#        90933
#        114973
#        135616
#        169140
#        197277
#        218828
#
# Disc length: 3188 seconds
#
# Revision: 0
# Processed by: cddbd v1.5.2PL0 Copyright (c) Steve Scherf et al.
# Submitted via: ExactAudioCopyFreeDBPlugin 1.0
#
DISCID=790c720a
DTITLE=Maurice Fléret - Déposé Madanm' Moun La
DYEAR=2012
DGENRE=World
TTITLE0=Déposé Madanm' Moun La
TTITLE1=Pa Guen Cobs
TTITLE2=An Dénié Chans
TTITLE3=Paré Pou Kompa
TTITLE4=Clash
TTITLE5=Douche Kompa
TTITLE6=Bon Kompa
TTITLE7=Toujou La
TTITLE8=Mizé
TTITLE9=Trottinement
EXTD=
EXTT0=
EXTT1=
EXTT2=
EXTT3=
EXTT4=
EXTT5=
EXTT6=
EXTT7=
EXTT8=
EXTT9=
PLAYORDER=
